<?xml version="1.0" standalone="no"?>
<!DOCTYPE svg PUBLIC "-//W3C//DTD SVG 20010904//EN"
 "http://www.w3.org/TR/2001/REC-SVG-20010904/DTD/svg10.dtd">
<svg version="1.0" xmlns="http://www.w3.org/2000/svg"
 width="405.000000pt" height="390.000000pt" viewBox="0 0 405.000000 390.000000"
 preserveAspectRatio="xMidYMid meet">
<metadata>
Created by potrace 1.16, written by Peter Selinger 2001-2019
</metadata>
<g transform="translate(0.000000,390.000000) scale(0.100000,-0.100000)"
fill="#000000" stroke="none">
<path d="M1097 3112 c-9 -2 -17 -10 -17 -17 0 -8 6 -12 14 -9 9 3 15 -4 18
-20 7 -36 -3 -41 -25 -14 -10 13 -16 17 -12 11 4 -9 -2 -13 -19 -13 -26 0 -36
-15 -15 -22 17 -6 -52 -73 -91 -88 -19 -7 -40 -17 -46 -21 -5 -5 -20 -6 -31
-3 -18 5 -21 2 -17 -14 4 -14 0 -21 -16 -25 -12 -3 -19 -10 -16 -16 4 -6 -8
-24 -26 -40 -28 -25 -31 -32 -19 -43 11 -10 14 -10 18 0 3 6 9 12 15 12 6 0 5
-6 -2 -15 -7 -8 -20 -14 -29 -13 -9 2 -15 -2 -14 -9 2 -7 -6 -17 -18 -23 -16
-9 -18 -14 -8 -26 9 -11 9 -17 -1 -29 -18 -22 -32 -18 -25 8 4 16 1 14 -11 -8
-12 -20 -13 -30 -5 -33 6 -2 2 -12 -11 -23 l-23 -20 24 11 c25 13 44 -1 35
-25 -3 -6 2 -18 11 -25 21 -17 19 -24 -11 -57 -21 -22 -27 -25 -34 -13 -5 8
-7 23 -4 33 4 11 0 17 -11 17 -13 0 -15 -7 -9 -42 4 -24 7 -66 8 -95 1 -28 6
-51 11 -50 6 1 9 -11 8 -28 -2 -16 -3 -42 -3 -57 -1 -15 -6 -30 -11 -33 -19
-12 -9 -26 11 -15 15 8 25 7 41 -4 12 -8 28 -12 35 -9 8 3 14 0 14 -6 0 -6 -5
-11 -12 -11 -7 0 -6 -6 4 -17 20 -24 30 -90 15 -97 -7 -2 -4 -5 5 -5 12 -1 22
-18 33 -56 9 -30 20 -55 25 -55 5 0 4 15 -1 33 -17 54 -18 216 -3 312 12 72
12 99 3 140 -16 62 -25 74 -34 44 -8 -23 -8 -23 -15 -4 -4 12 -1 32 8 50 l15
29 -31 -28 c-25 -24 -30 -35 -26 -65 l4 -36 -9 34 c-6 21 -5 44 0 59 7 18 6
28 -3 33 -9 6 -8 10 4 14 10 4 20 15 23 26 9 27 24 24 19 -3 -3 -21 -3 -21 7
2 17 38 113 113 171 133 28 10 80 22 114 26 41 5 76 16 102 34 51 33 119 51
174 44 127 -16 197 -34 246 -66 71 -45 95 -77 115 -152 10 -35 29 -100 42
-144 26 -88 65 -303 65 -360 0 -20 4 -34 9 -31 12 8 21 -45 11 -64 -5 -9 -13
-50 -19 -93 -12 -89 -31 -132 -61 -140 -11 -3 -20 -13 -20 -22 0 -9 4 -13 10
-10 15 10 12 -2 -6 -20 -13 -13 -15 -23 -7 -48 8 -27 14 -32 36 -30 18 1 27
-3 27 -13 0 -9 7 -23 16 -32 14 -13 23 -14 60 -4 57 15 91 15 97 0 11 -25 27
16 27 68 0 41 -5 57 -25 78 -14 15 -25 32 -25 39 0 7 -19 21 -41 32 -40 19
-41 20 -34 60 4 22 8 65 10 96 3 69 9 80 59 114 86 59 205 55 288 -8 40 -31
109 -131 149 -215 24 -51 39 -134 39 -221 0 -54 2 -62 14 -52 8 7 18 27 22 44
l7 32 12 -30 c7 -16 14 -55 16 -85 l4 -55 -35 -9 -35 -8 0 -83 c0 -55 -5 -87
-14 -99 -12 -14 -12 -16 2 -11 12 5 16 -4 22 -42 5 -41 2 -59 -25 -118 -46
-102 -85 -159 -131 -190 l-41 -27 -43 23 c-36 19 -106 103 -94 113 2 2 22 13
44 25 22 12 29 18 15 14 -14 -4 -50 -8 -82 -7 -65 0 -99 19 -200 111 -35 32
-72 63 -83 69 -11 6 -28 33 -39 60 -21 55 -24 61 -49 97 -21 30 -35 97 -19 97
6 0 13 -6 15 -12 2 -7 3 -2 1 12 -1 14 -8 38 -14 54 l-11 30 -21 -34 c-24 -41
-46 -59 -70 -60 -10 0 -18 -7 -18 -15 0 -8 -3 -15 -7 -15 -5 0 -24 -10 -43
-22 -19 -11 -55 -23 -80 -25 -25 -2 -58 -6 -75 -9 -16 -4 -46 -6 -65 -6 -54 1
-18 -14 82 -35 48 -9 88 -21 88 -25 0 -5 10 -4 21 3 17 9 23 8 30 -2 12 -19
11 -29 -1 -29 -5 0 -10 -7 -10 -15 0 -23 28 -6 45 28 17 34 20 61 5 52 -5 -3
-10 -15 -10 -26 0 -23 -15 -25 -24 -3 -4 9 9 30 34 55 40 40 40 40 35 12 -22
-122 -22 -143 -4 -165 11 -11 19 -29 19 -40 0 -10 6 -18 13 -18 18 0 63 -49
75 -80 5 -14 6 -35 1 -47 -9 -25 -1 -65 12 -57 5 3 9 -11 9 -30 0 -25 -4 -36
-15 -36 -8 0 -15 -4 -15 -10 0 -5 -18 -8 -42 -5 -24 2 -74 7 -113 9 -100 7
-226 53 -378 137 -160 88 -237 129 -238 126 0 -1 -2 -12 -5 -25 -3 -17 -1 -21
8 -15 17 10 42 14 33 5 -4 -4 -11 -8 -16 -8 -5 -1 -10 -2 -11 -4 -2 -1 -11 -3
-20 -5 -12 -2 -15 2 -11 13 4 10 2 13 -5 8 -6 -3 -15 2 -21 11 -6 10 -11 14
-11 9 0 -5 -8 -2 -17 5 -10 8 -14 9 -10 2 7 -11 -14 -36 -64 -78 -24 -19 -45
-45 -79 -95 -35 -51 -39 -53 -23 -10 9 25 24 54 32 64 16 19 16 19 -10 0 -15
-10 -25 -22 -23 -25 10 -18 -28 -31 -71 -25 -35 6 -48 13 -62 37 -20 34 -38
38 -46 9 -4 -14 12 -33 68 -80 46 -37 75 -55 78 -48 7 20 76 -40 125 -108 50
-70 102 -169 125 -239 36 -109 47 -146 47 -163 1 -29 38 -131 60 -161 11 -16
20 -33 20 -39 0 -25 414 -188 453 -178 9 2 15 0 11 -5 -3 -5 1 -9 10 -9 8 0
23 -3 33 -7 10 -4 5 5 -14 23 -31 29 -54 104 -32 104 6 0 7 -6 4 -12 -4 -7 4
-2 17 12 13 14 36 35 52 47 l29 23 -25 0 c-15 0 -25 6 -25 15 0 18 18 20 36 3
10 -11 11 -10 8 2 -2 8 -2 12 0 8 3 -5 12 -8 21 -8 14 0 15 -2 2 -10 -11 -7
-9 -11 12 -19 31 -12 59 -48 51 -67 -4 -10 0 -12 12 -8 13 5 16 3 13 -7 -3 -8
13 -31 35 -51 21 -21 36 -38 32 -38 -15 0 30 -59 49 -64 12 -3 79 -6 150 -6
124 0 129 1 113 18 -10 10 -17 26 -17 35 0 8 -8 18 -17 20 -14 4 -13 5 4 6 14
1 31 -12 51 -39 l29 -40 17 25 c9 14 21 23 25 20 8 -5 52 77 50 92 -1 5 2 18
6 31 14 44 55 18 55 -35 0 -22 -5 -33 -14 -33 -8 0 -17 -14 -21 -30 -4 -17
-12 -30 -20 -30 -7 0 -15 -9 -18 -21 -5 -19 -2 -20 26 -15 18 3 55 8 82 12
186 20 425 93 622 189 208 100 360 206 528 367 76 72 93 93 86 107 -17 30 -75
86 -141 135 -62 46 -150 157 -150 189 0 8 -7 20 -15 27 -8 7 -15 19 -15 27 0
8 -5 11 -11 7 -12 -7 -69 43 -69 62 0 12 -75 37 -120 40 -32 2 -54 33 -94 131
-18 45 -40 92 -49 106 -21 32 -102 87 -128 87 -10 0 -19 5 -19 10 0 6 -17 29
-39 53 -35 39 -77 109 -116 197 -29 64 -80 156 -113 203 -18 25 -35 59 -38 74
-7 35 -40 77 -54 68 -5 -3 -10 -1 -10 5 0 19 -103 116 -142 134 -20 10 -58 19
-85 20 -26 1 -68 8 -91 16 -33 10 -51 11 -73 3 -16 -6 -37 -9 -47 -7 -28 8
-75 -14 -68 -31 3 -8 2 -25 -3 -37 -5 -14 -8 46 -7 147 1 187 -12 262 -51 305
-23 25 -34 98 -13 85 6 -4 10 5 10 19 0 21 -5 26 -25 26 -25 0 -36 25 -14 32
7 2 3 24 -12 63 -23 56 -26 60 -57 61 -19 1 -40 -5 -48 -13 -12 -12 -16 -12
-30 2 -9 8 -35 25 -58 36 -22 12 -55 34 -72 50 -40 38 -102 70 -107 55 -3 -8
-8 -8 -18 0 -20 16 -51 26 -44 14 9 -14 -44 -24 -68 -12 -12 5 -37 15 -54 22
-18 7 -33 15 -33 19 0 6 -35 8 -63 3z m-261 -1986 c-4 -17 -1 -25 12 -29 9 -2
26 -8 37 -12 11 -4 16 -3 10 2 -5 4 -17 17 -25 27 -15 19 -14 19 17 3 17 -9
35 -22 39 -28 4 -8 3 -9 -4 -5 -19 11 -14 -5 6 -20 24 -19 37 -17 21 3 -8 10
10 3 41 -15 63 -38 167 -87 257 -122 34 -13 59 -28 56 -32 -6 -11 17 -39 27
-33 4 2 20 -9 35 -25 16 -17 34 -30 39 -30 6 -1 49 -41 96 -91 152 -161 243
-249 258 -249 23 0 82 -31 76 -41 -4 -7 19 -70 52 -145 3 -6 -2 -14 -11 -18
-9 -3 -13 -2 -10 4 3 6 3 15 -1 21 -4 8 -9 7 -15 -2 -8 -14 -18 -5 -79 71 -13
16 -30 30 -37 30 -7 0 -13 4 -13 9 0 12 -69 95 -84 100 -6 2 -17 13 -25 23 -7
11 -24 24 -38 29 -14 5 -23 12 -20 15 7 8 -54 64 -69 64 -6 0 -17 12 -23 28
-14 34 -73 102 -88 102 -6 0 -13 7 -17 15 -3 8 -13 15 -22 15 -10 0 -15 3 -11
6 9 9 -36 55 -50 50 -7 -3 -12 -1 -10 3 4 15 -45 51 -69 51 -13 0 -26 5 -29
10 -4 6 -11 7 -17 4 -7 -4 -8 -2 -4 4 12 21 -40 37 -71 23 -22 -10 -25 -10
-15 2 10 11 9 17 -2 27 -9 6 -20 9 -25 5 -18 -10 -51 14 -45 33 4 13 2 12 -8
-3 -12 -18 -48 -31 -46 -16 2 18 -4 22 -17 11 -8 -7 -21 -10 -29 -7 -7 3 -17
2 -22 -2 -11 -10 -93 0 -118 15 -19 11 -18 13 7 56 30 52 52 72 67 63 6 -4 10
-3 9 2 -2 13 1 23 7 23 3 0 3 -11 0 -24z m1146 -455 c7 11 11 11 15 2 2 -7 13
-13 24 -13 10 0 19 -7 19 -15 0 -19 42 -37 51 -22 11 16 38 0 50 -30 7 -15 24
-54 39 -86 29 -61 29 -107 2 -107 -18 0 -161 147 -152 157 3 3 -7 -2 -21 -11
-14 -9 -29 -13 -34 -9 -4 5 -5 -2 -2 -15 3 -12 0 -25 -7 -30 -44 -27 -69 -122
-54 -207 l8 -40 -16 40 c-15 40 -15 159 0 184 4 6 -2 28 -14 48 -11 19 -18 38
-15 42 7 6 37 -27 55 -58 14 -26 24 -3 11 25 -13 29 -6 68 11 58 7 -4 8 -2 4
5 -4 6 -12 9 -17 6 -16 -10 -10 22 7 36 10 8 13 21 10 38 -6 23 -5 24 5 7 9
-15 13 -16 21 -5z m-782 -124 c10 -21 21 -31 33 -29 16 3 17 -2 11 -34 -5 -26
-3 -39 7 -45 22 -14 49 -10 49 6 0 8 5 15 10 15 6 0 10 -5 10 -11 0 -5 5 -7
10 -4 6 4 8 11 5 16 -4 5 0 9 8 9 7 0 19 -11 25 -25 10 -21 9 -26 -9 -36 -15
-8 -24 -8 -32 0 -8 8 -6 11 7 11 9 0 15 4 12 9 -13 20 -60 -3 -52 -25 3 -8 2
-14 -2 -14 -4 0 -8 -14 -9 -31 -2 -26 0 -29 13 -19 20 18 28 6 12 -19 -10 -16
-10 -23 0 -33 9 -9 12 -7 12 12 0 18 3 21 12 12 15 -15 18 -52 4 -52 -6 0 -6
-4 2 -12 8 -8 15 -8 27 2 12 10 15 10 15 -4 0 -9 -4 -16 -10 -16 -5 0 -10 -7
-10 -15 0 -18 -20 -20 -21 -2 0 10 -2 10 -6 0 -5 -14 -24 -18 -22 -5 3 18 -2
32 -12 32 -5 0 -7 -4 -4 -10 3 -5 2 -10 -2 -10 -13 0 -33 59 -23 65 13 8 0 35
-16 35 -17 0 -18 17 -1 23 8 3 2 13 -17 30 -16 13 -26 29 -22 35 9 15 -3 39
-23 45 -15 3 -18 13 -16 45 1 26 -2 39 -8 35 -6 -4 -8 0 -4 11 4 10 7 22 7 27
0 19 16 7 30 -24z m516 -244 c28 -21 69 -54 92 -74 38 -32 41 -38 26 -50 -13
-10 -19 -10 -36 0 -26 16 -33 8 -33 -37 0 -52 -16 -49 -49 11 -16 28 -42 71
-58 94 -31 46 -34 63 -16 81 17 17 19 16 74 -25z"/>
<path d="M1530 2450 c-8 -5 -24 -10 -36 -10 -45 0 -56 -97 -18 -157 29 -46
151 -87 190 -64 17 9 15 10 -11 11 -42 0 -75 10 -75 22 0 6 9 8 20 5 11 -3 20
-1 20 3 0 4 27 7 60 6 82 -2 91 6 51 43 -32 30 -84 51 -128 51 -30 0 -38 17
-13 30 25 13 105 3 137 -17 20 -13 21 -13 16 7 -11 43 -174 97 -213 70z"/>
<path d="M1128 2394 c-27 -13 -48 -29 -48 -34 0 -6 -4 -9 -9 -6 -5 3 -15 -2
-22 -11 -13 -14 -11 -15 21 -9 129 24 177 13 80 -19 -49 -16 -160 -90 -160
-107 0 -11 34 -10 46 1 15 15 134 25 134 11 0 -8 10 -9 31 -5 22 5 29 4 25 -4
-4 -6 -15 -11 -24 -11 -9 -1 -28 -8 -42 -16 -25 -15 -24 -15 15 -9 42 6 91 35
84 49 -2 4 4 12 14 17 9 6 17 19 17 29 0 10 5 22 10 25 6 4 8 15 5 25 -4 11 0
22 10 28 18 10 11 61 -9 63 -111 8 -133 6 -178 -17z"/>
<path d="M586 878 c16 -13 30 -29 32 -37 2 -8 12 -27 23 -43 20 -28 14 -39 -9
-16 -23 23 -9 -35 16 -62 25 -28 30 -49 7 -30 -8 7 -15 9 -15 4 0 -5 -5 -1
-11 9 -6 9 -15 15 -20 11 -5 -3 -16 0 -24 6 -14 11 -75 25 -75 17 0 -3 18 -23
40 -46 22 -22 40 -44 40 -47 0 -9 -44 8 -52 20 -4 6 -10 7 -14 3 -4 -3 12 -28
36 -54 23 -27 54 -61 69 -77 48 -54 208 -175 322 -244 l36 -22 -38 126 c-22
69 -39 134 -39 145 0 13 -4 18 -12 13 -8 -5 -9 -2 -5 9 3 9 2 27 -3 39 -5 13
-9 17 -9 10 -1 -7 -6 -10 -11 -7 -8 5 -7 11 0 21 9 10 2 23 -33 58 -25 24 -42
48 -39 52 4 5 -1 2 -10 -5 -10 -7 -18 -12 -19 -10 -3 16 -8 53 -14 104 -7 63
-11 75 -25 75 -5 0 -8 -22 -7 -50 0 -27 4 -50 9 -50 4 0 8 -7 8 -15 0 -21 -16
-19 -33 6 -8 11 -23 22 -33 23 -11 2 -20 13 -22 27 -4 30 -39 58 -71 59 -25 0
-25 0 5 -22z"/>
</g>
</svg>
