<?xml version="1.0" standalone="no"?>
<!DOCTYPE svg PUBLIC "-//W3C//DTD SVG 20010904//EN"
 "http://www.w3.org/TR/2001/REC-SVG-20010904/DTD/svg10.dtd">
<svg version="1.0" xmlns="http://www.w3.org/2000/svg"
 width="404.000000pt" height="412.000000pt" viewBox="0 0 404.000000 412.000000"
 preserveAspectRatio="xMidYMid meet">
<metadata>
Created by potrace 1.16, written by Peter Selinger 2001-2019
</metadata>
<g transform="translate(0.000000,412.000000) scale(0.100000,-0.100000)"
fill="#000000" stroke="none">
<path d="M1938 4070 c-36 -36 -50 -59 -63 -105 -9 -33 -21 -69 -27 -80 -7 -11
-13 -72 -14 -140 -2 -66 -7 -137 -12 -157 -5 -20 -8 -39 -6 -41 2 -2 7 -37 10
-77 3 -41 11 -107 19 -148 8 -41 13 -77 11 -81 -6 -8 17 -95 39 -148 9 -24 15
-50 11 -58 -3 -8 0 -15 7 -15 7 0 -1 -8 -16 -18 -26 -16 -28 -21 -24 -64 2
-26 20 -80 40 -120 36 -73 57 -159 57 -230 0 -51 25 -109 50 -115 11 -3 40
-36 65 -74 42 -65 75 -96 89 -82 3 3 6 -3 6 -15 0 -12 4 -22 9 -22 11 0 61
-128 66 -168 4 -33 -24 -100 -52 -125 -20 -17 -21 -17 -27 8 -4 14 -4 30 -1
36 4 5 -6 31 -21 57 -15 26 -27 57 -26 70 1 12 -2 22 -7 22 -5 0 -12 18 -16
40 -4 22 -11 42 -16 45 -13 9 -69 127 -69 147 0 9 -13 36 -29 60 -16 24 -40
65 -52 93 -22 46 -52 85 -64 85 -3 0 -19 13 -35 30 -16 17 -34 30 -40 30 -5 0
-10 7 -10 15 0 12 -11 14 -54 11 -47 -4 -55 -2 -59 15 -3 10 -14 19 -25 19
-11 0 -30 16 -45 39 -27 41 -41 46 -152 59 -72 8 -190 3 -190 -8 0 -1 -16 -3
-36 -6 -19 -2 -78 -27 -129 -54 -52 -28 -98 -50 -103 -50 -12 0 -70 -41 -80
-57 -4 -7 -14 -13 -21 -13 -20 0 -282 -266 -323 -327 -19 -29 -39 -55 -43 -58
-5 -3 -20 -36 -34 -73 -20 -52 -24 -75 -17 -93 6 -17 4 -33 -6 -53 -9 -17 -13
-41 -9 -58 6 -31 -10 -69 -52 -121 -12 -16 -22 -34 -22 -41 0 -8 -9 -25 -20
-39 -11 -14 -20 -40 -20 -60 0 -22 -6 -37 -15 -41 -8 -3 -15 -13 -15 -22 0
-10 -7 -25 -16 -35 -10 -11 -17 -39 -18 -73 -2 -31 -6 -59 -9 -63 -4 -3 -7
-17 -7 -30 0 -12 -4 -23 -9 -23 -17 0 -19 -84 -3 -103 13 -15 13 -25 2 -75 -7
-31 -24 -77 -36 -101 l-24 -44 42 -76 c82 -151 208 -328 208 -293 0 7 7 12 15
12 17 0 20 17 5 22 -7 2 -4 11 5 23 16 20 16 20 10 -2 -11 -39 21 -27 42 14
10 22 26 39 38 41 19 2 270 -132 400 -214 112 -70 169 -138 181 -215 4 -22 17
-53 30 -67 13 -13 24 -29 24 -34 0 -4 11 -6 24 -2 22 5 24 2 32 -48 l7 -53 9
40 c6 22 7 92 3 156 -5 103 -4 118 12 135 10 11 14 14 10 7 -11 -15 -1 -33 18
-33 7 0 16 -7 19 -16 5 -12 14 -15 36 -10 33 6 37 -1 15 -30 -8 -10 -15 -29
-15 -42 0 -12 -11 -44 -24 -70 -25 -50 -39 -123 -40 -211 l-1 -54 54 -18 c30
-11 55 -18 56 -16 8 12 27 240 30 347 2 74 6 164 10 200 9 94 42 221 65 252
11 15 20 37 20 49 0 32 29 86 56 104 14 9 22 19 20 24 -3 4 8 21 25 37 31 29
74 84 66 84 -2 0 -17 -11 -33 -25 -62 -55 -122 -87 -225 -120 -113 -36 -140
-37 -244 -5 -16 5 -57 14 -90 21 -33 7 -72 21 -87 31 -14 10 -30 18 -35 18 -5
0 -32 21 -60 48 -55 51 -113 152 -113 199 0 15 -12 55 -26 88 -26 61 -44 175
-28 175 5 0 22 -12 38 -27 16 -15 43 -28 60 -30 21 -2 47 -20 83 -55 29 -29
53 -49 53 -45 0 4 9 3 19 -3 11 -5 17 -17 15 -27 -3 -12 11 -29 42 -52 44 -32
51 -34 147 -37 119 -4 118 7 -3 35 -47 11 -105 29 -130 41 l-45 21 55 -5 c30
-2 93 -12 140 -21 197 -38 209 -39 263 -25 29 7 58 17 65 23 7 5 27 7 46 4 25
-4 39 -1 50 12 18 20 21 83 5 112 -13 26 -3 56 22 62 11 3 25 20 32 37 8 22
17 30 29 26 11 -2 18 1 18 10 0 17 5 17 31 4 24 -13 25 -1 3 41 -14 28 -14 32
2 50 9 10 20 16 24 14 5 -3 18 7 29 22 l20 28 1 -72 c0 -40 -4 -94 -9 -120 -5
-26 -14 -82 -21 -123 -6 -41 -14 -83 -16 -92 -9 -32 19 -19 75 32 30 27 63 53
75 56 12 4 35 17 52 30 17 13 39 24 48 24 10 0 29 9 43 20 14 11 31 20 37 20
23 0 50 44 48 77 -3 38 26 72 61 74 16 1 18 2 5 6 -21 5 -24 46 -5 61 17 13
53 6 94 -19 35 -22 43 -39 18 -39 -24 0 -17 -20 11 -30 14 -6 42 -10 62 -11
29 0 32 -2 17 -8 -13 -5 6 -10 60 -15 86 -7 182 9 213 36 9 9 30 18 45 22 42
10 107 39 107 48 0 5 7 8 15 8 21 0 41 36 55 99 10 40 15 50 22 38 4 -9 6 -30
3 -48 -5 -29 -4 -31 17 -25 13 3 31 6 41 6 9 0 17 7 17 15 0 10 -10 15 -29 15
-26 0 -30 3 -29 30 1 17 5 30 11 30 5 0 7 -11 5 -25 -6 -30 -1 -31 32 -5 20
16 22 20 7 20 -15 0 -16 3 -5 23 7 12 18 29 24 37 17 23 27 60 15 60 -5 0 -15
-16 -21 -35 -6 -19 -16 -35 -21 -35 -9 0 -6 20 8 75 5 17 1 16 -25 -8 -36 -35
-46 -24 -36 39 5 32 10 42 17 35 19 -19 27 -12 52 42 22 49 24 50 20 17 -2
-19 -7 -45 -11 -58 -4 -13 -2 -22 5 -22 6 0 11 7 11 15 0 8 12 31 26 52 25 35
26 36 22 11 -3 -15 -1 -25 3 -22 5 3 9 -1 10 -8 1 -28 19 37 25 90 3 31 11 60
17 64 6 4 8 10 4 14 -4 4 1 16 10 27 13 15 14 19 3 13 -8 -4 -7 -1 4 8 10 8
16 22 13 31 -4 8 -2 15 4 15 6 0 9 6 6 13 -2 6 3 17 12 24 12 9 12 12 3 13
-10 0 -9 4 3 16 9 9 14 23 11 30 -3 8 -1 14 5 14 6 0 7 5 3 11 -3 6 -1 15 5
19 7 4 13 17 14 28 1 12 5 22 9 22 4 0 8 11 8 25 0 14 9 43 20 65 14 28 20 59
20 110 0 68 1 73 34 104 44 41 55 80 33 119 -12 20 -14 34 -8 45 8 15 11 13
20 -11 6 -16 11 -52 12 -80 l0 -52 21 55 c24 68 26 187 2 210 -14 13 -19 11
-44 -18 -17 -21 -30 -29 -35 -23 -8 15 25 81 47 95 26 16 57 -21 68 -80 l9
-49 -3 53 c-3 54 -33 102 -63 102 -14 0 -13 45 3 165 5 39 4 41 -75 113 -318
288 -676 458 -1093 517 -57 8 -148 14 -203 13 l-100 -1 -47 -47z m1222 -438
c1 -80 6 -126 17 -152 18 -41 36 -137 29 -149 -4 -6 -1 -11 7 -11 10 0 17 -17
22 -56 5 -44 13 -62 33 -79 26 -23 27 -27 30 -151 3 -99 0 -143 -13 -189 -29
-103 -29 -103 -67 -98 -18 3 -40 6 -49 6 -12 1 -14 9 -9 39 4 21 13 44 19 52
24 29 30 75 15 112 -8 19 -12 39 -9 44 4 6 3 16 -2 23 -4 6 -13 28 -18 47 -8
25 -26 45 -65 73 l-55 38 -105 -6 c-58 -3 -120 -11 -138 -16 -35 -12 -82 -5
-82 11 0 5 7 7 14 4 15 -6 65 24 66 39 0 5 -5 5 -11 2 -22 -14 -133 -35 -138
-27 -3 5 -12 11 -20 13 -7 3 6 11 30 18 24 7 76 28 114 46 76 34 188 65 248
67 43 1 51 18 10 19 -71 2 -114 -5 -194 -32 -48 -16 -102 -29 -121 -29 -19 0
-38 -4 -43 -9 -19 -16 -106 -34 -116 -24 -16 16 7 27 151 78 172 60 231 74
305 76 l60 1 -49 12 c-28 7 -71 9 -100 5 -71 -9 -254 -47 -267 -55 -6 -3 -15
0 -20 7 -13 21 -11 27 14 35 123 38 170 73 80 59 l-48 -7 19 21 c11 12 24 21
29 21 6 0 18 6 26 14 9 8 33 17 55 20 21 4 50 15 65 25 14 10 44 22 66 26 22
4 66 20 98 36 33 16 65 29 72 29 7 0 16 7 19 16 11 28 26 4 26 -44z m-490
-927 c0 -21 6 -37 17 -43 16 -9 16 -11 0 -27 -9 -9 -17 -24 -17 -32 0 -26 -33
-94 -44 -90 -5 2 -15 19 -21 38 -7 20 -20 35 -31 37 -31 6 -37 19 -12 25 14 4
30 22 41 44 33 70 42 83 54 83 8 0 13 -13 13 -35z m-1134 -49 c16 -8 45 -21
64 -29 25 -10 51 -37 92 -98 50 -74 60 -96 78 -181 11 -53 34 -137 49 -188
l29 -91 -42 36 c-85 74 -182 98 -282 69 -32 -9 -63 -23 -67 -31 -5 -8 -16 -11
-28 -8 -12 4 -19 2 -19 -8 0 -21 12 -28 27 -16 17 15 17 -2 1 -48 -15 -42 -32
-43 -25 0 6 32 6 32 -10 10 -8 -13 -22 -23 -30 -23 -10 0 -11 -4 -3 -19 5 -11
10 -43 10 -71 0 -52 27 -131 62 -183 11 -15 18 -35 16 -45 -4 -17 -9 -18 -81
-6 -29 5 -43 2 -57 -11 -18 -16 -20 -16 -20 -2 0 10 -11 19 -27 23 -16 4 -45
23 -67 43 -25 23 -40 32 -43 24 -6 -17 -50 -16 -56 1 -3 8 20 38 55 72 33 33
71 80 84 106 13 26 36 55 50 65 26 16 26 17 5 25 -15 5 -21 16 -21 37 0 16 4
33 10 36 21 13 -66 136 -99 141 -7 2 -24 13 -37 25 -21 20 -35 23 -109 23 -47
1 -85 3 -85 5 0 1 45 64 99 140 100 137 117 153 206 186 50 19 227 13 271 -9z
m1738 -23 c-11 -44 -56 -156 -74 -183 -22 -33 -70 -180 -59 -180 5 0 9 -5 9
-11 0 -5 -4 -8 -9 -5 -5 3 -12 -4 -16 -17 l-8 -22 -4 23 c-2 12 -10 22 -18 22
-8 0 -11 7 -8 19 3 13 10 18 21 14 10 -4 13 -2 8 5 -9 15 2 54 14 47 11 -7 18
25 11 51 -5 19 -8 20 -19 8 -7 -8 -8 -14 -2 -14 14 0 12 -22 -5 -44 -15 -20
-15 -20 -29 0 -8 11 -18 15 -23 10 -4 -5 -2 -11 5 -13 6 -3 12 -10 12 -15 0
-6 -3 -8 -6 -5 -13 13 -46 -14 -41 -34 3 -10 1 -17 -3 -14 -17 11 -58 -7 -63
-27 -5 -16 -9 -18 -25 -9 -11 6 -28 18 -37 27 -14 15 -14 18 5 34 11 9 20 25
20 34 0 9 8 16 19 16 11 0 26 6 33 14 8 7 25 17 38 21 113 35 194 116 215 215
8 37 22 60 36 60 5 0 6 -12 3 -27z m-2194 -911 c0 -10 16 -33 35 -52 19 -19
35 -37 35 -41 0 -3 -44 -9 -98 -13 -97 -7 -169 5 -156 25 3 5 32 22 65 39 33
16 69 36 82 45 28 20 37 19 37 -3z m440 -141 c29 -35 59 -83 66 -108 10 -34
11 -43 1 -35 -6 5 -23 13 -36 17 -13 4 -57 29 -98 55 -40 27 -87 51 -103 55
-17 4 -30 10 -30 15 0 8 82 50 99 50 5 0 14 7 21 15 7 9 16 12 20 8 4 -4 31
-37 60 -72z m-385 -52 c3 -4 19 -6 35 -2 17 3 36 0 44 -6 7 -6 26 -8 43 -5 20
4 35 1 46 -10 8 -9 23 -13 31 -10 9 3 23 1 31 -6 8 -6 19 -9 25 -5 7 4 14 -2
17 -13 3 -13 11 -18 19 -15 9 3 14 -2 14 -13 0 -26 -18 -51 -27 -39 -5 6 -19
11 -33 12 -14 1 -52 4 -85 8 -33 4 -77 8 -98 9 -21 2 -44 9 -50 15 -6 6 -19
11 -29 11 -33 0 -68 23 -68 45 0 12 2 24 5 26 8 9 75 7 80 -2z"/>
</g>
</svg>
